<svg xmlns="http://www.w3.org/2000/svg" version="1.1" xmlns:xlink="http://www.w3.org/1999/xlink" xmlns:svgjs="http://svgjs.dev/svgjs" width="1440" height="560" preserveAspectRatio="none" viewBox="0 0 1440 560"><g mask="url(&quot;#SvgjsMask1005&quot;)" fill="none"><path d="M168.94 357.19a16.17 16.17 0 1 0 31.06 9.02z" stroke="rgba(147, 34, 211, 1)"></path><path d="M808.07 514.11L830.6 514.11L830.6 536.64L808.07 536.64z" fill="rgba(147, 34, 211, 1)"></path><path d="M491.21 523.69 a33.7 33.7 0 1 0 67.4 0 a33.7 33.7 0 1 0 -67.4 0z" stroke="rgba(30, 30, 30, 1)"></path><path d="M1248.66 211.27a54.5 54.5 0 1 0 97 49.71z" stroke="rgba(147, 34, 211, 1)"></path><path d="M313.7 141.73a10.26 10.26 0 1 0 16.22 12.58z" stroke="rgba(30, 30, 30, 1)"></path><path d="M1316.29 515.54a35.55 35.55 0 1 0-69.81-13.46z" stroke="rgba(147, 34, 211, 1)"></path><path d="M49.35 124.45a1.61 1.61 0 1 0 2.24-2.31z" fill="rgba(147, 34, 211, 1)"></path><path d="M1317.83 409 a5.97 5.97 0 1 0 11.94 0 a5.97 5.97 0 1 0 -11.94 0z" stroke="rgba(30, 30, 30, 1)"></path><path d="M232.62 545.07 a27.94 27.94 0 1 0 55.88 0 a27.94 27.94 0 1 0 -55.88 0z" stroke="rgba(147, 34, 211, 1)"></path><path d="M713.64 392.97 a47.49 47.49 0 1 0 94.98 0 a47.49 47.49 0 1 0 -94.98 0z" stroke="rgba(147, 34, 211, 1)"></path><path d="M486.29 147.66L487.36 147.66L487.36 148.73L486.29 148.73z" fill="rgba(30, 30, 30, 1)"></path><path d="M265.8 529.18 a51.79 51.79 0 1 0 103.58 0 a51.79 51.79 0 1 0 -103.58 0z" fill="rgba(147, 34, 211, 1)"></path><path d="M1030.02 58.03 a41.7 41.7 0 1 0 83.4 0 a41.7 41.7 0 1 0 -83.4 0z" fill="rgba(147, 34, 211, 1)"></path><path d="M257.01 197.69 a36.94 36.94 0 1 0 73.88 0 a36.94 36.94 0 1 0 -73.88 0z" fill="rgba(30, 30, 30, 1)"></path><path d="M447.34 433.1L476.39 433.1L476.39 436.11L447.34 436.11z" stroke="rgba(147, 34, 211, 1)"></path><path d="M1347.13 555.55L1363.1 555.55L1363.1 571.52L1347.13 571.52z" stroke="rgba(147, 34, 211, 1)"></path><path d="M357.3 108.57L407.14 108.57L407.14 141.19L357.3 141.19z" fill="rgba(147, 34, 211, 1)"></path><path d="M750.17 173.97L774.48 173.97L774.48 198.28L750.17 198.28z" fill="rgba(147, 34, 211, 1)"></path><path d="M821.6 441.12 a46.08 46.08 0 1 0 92.16 0 a46.08 46.08 0 1 0 -92.16 0z" fill="rgba(30, 30, 30, 1)"></path><path d="M543.27 475.31L567.85 475.31L567.85 495.4L543.27 495.4z" stroke="rgba(30, 30, 30, 1)"></path><path d="M920.21 493.22L929.71 493.22L929.71 496.01L920.21 496.01z" stroke="rgba(147, 34, 211, 1)"></path><path d="M545.93 527.17a9.83 9.83 0 1 0 10.59 16.57z" stroke="rgba(147, 34, 211, 1)"></path><path d="M826.17 336.09L878.91 336.09L878.91 373.14L826.17 373.14z" stroke="rgba(147, 34, 211, 1)"></path><path d="M597.21 114.13L608.71 114.13L608.71 138.03L597.21 138.03z" stroke="rgba(30, 30, 30, 1)"></path><path d="M489.9 171.11 a12.73 12.73 0 1 0 25.46 0 a12.73 12.73 0 1 0 -25.46 0z" stroke="rgba(147, 34, 211, 1)"></path><path d="M973.01 506.46L982.15 506.46L982.15 527.79L973.01 527.79z" fill="rgba(30, 30, 30, 1)"></path><path d="M1372.64 238.71a12.12 12.12 0 1 0 20.47-12.98z" fill="rgba(30, 30, 30, 1)"></path><path d="M175.36 48.2 a25.53 25.53 0 1 0 51.06 0 a25.53 25.53 0 1 0 -51.06 0z" stroke="rgba(147, 34, 211, 1)"></path><path d="M106.34 131.07a21.15 21.15 0 1 0 34.48 24.51z" stroke="rgba(30, 30, 30, 1)"></path><path d="M1198.38 412.94L1203.48 412.94L1203.48 418.04L1198.38 418.04z" stroke="rgba(30, 30, 30, 1)"></path><path d="M1019.54 326.6 a50.64 50.64 0 1 0 101.28 0 a50.64 50.64 0 1 0 -101.28 0z" fill="rgba(147, 34, 211, 1)"></path><path d="M85.72 519.29L119.73 519.29L119.73 553.22L85.72 553.22z" stroke="rgba(30, 30, 30, 1)"></path><path d="M1221.85 276.07L1233.98 276.07L1233.98 288.2L1221.85 288.2z" fill="rgba(147, 34, 211, 1)"></path></g><defs><mask id="SvgjsMask1005"><rect width="1440" height="560" fill="#ffffff"></rect></mask></defs></svg>